<svg width="120" height="190" viewBox="0 0 120 190" fill="none" xmlns="http://www.w3.org/2000/svg">
<path d="M96.2771 0.359699C96.2771 0.359699 104.077 -1.90115 107.095 4.91336C107.095 4.91336 118.664 16.7006 119.925 25.1962C119.925 25.1962 120.404 27.7903 117.653 29.191C115.599 30.2174 112.804 32.7722 110.962 34.8404C110.962 34.8404 104.756 42.0019 93.5072 42.0019C93.5072 42.0019 92.0162 41.8549 88.8651 48.5489C87.2656 51.9657 82.8953 57.112 79.6894 61.0703C77.7436 63.4608 75.119 69.816 74.4104 71.718C72.8527 75.8215 72.3929 85.9963 74.0282 88.8872C74.0282 88.8872 79.1798 100.066 80.5733 105.025C80.6648 105.326 83.0585 111.825 81.8522 121.195C81.7368 122.106 81.0699 125.665 80.8161 127.772C80.4459 130.786 80.5673 137.024 81.8283 139.87C83.0346 142.594 86.6585 145.113 87.6707 152.203C88.6939 159.125 86.5192 169.133 87.3612 175.149C87.834 178.513 89.4881 183.322 96.5428 186.414C96.5428 186.414 103.24 187.903 100.233 189.983C100.233 189.983 92.5129 190.25 87.9853 188.721C87.9853 188.721 80.2697 189.282 79.2634 186.658C79.2634 186.658 79.2824 184.601 80.1065 182.933C80.1065 182.933 78.4095 172.635 72.8826 165.864C68.8944 160.976 68.0305 158.947 70.0579 141.427C70.0579 141.427 63.7607 137.774 60.0373 124.586C58.9464 120.705 57.2644 114.017 55.9157 109.046C55.9157 109.046 46.2464 127.66 47.0735 137.018C47.0735 137.018 51.6768 146.609 52.2859 150.257C52.8015 153.376 52.695 158.407 51.2677 162.817C49.7917 167.376 52.9557 177.978 53.962 181.57C53.962 181.57 56.4622 187.77 51.617 187.626C51.617 187.626 43.2327 186.658 40.5444 188.46C40.5444 188.46 30.9815 189.539 28.984 188.727C28.984 188.727 25.793 187.631 31.1627 185.424C31.1627 185.424 36.8717 185.286 38.8683 181.982C38.8683 181.982 41.3894 179.219 42.2194 178.796C42.2194 178.796 38.708 170.74 35.3141 159.086C34.0172 154.599 33.1473 144.252 32.3531 139.681C31.8504 136.835 33.4957 130.146 32.5013 127.372C29.8887 120.021 25.8557 114.428 32.152 96.7636C32.152 96.7636 35.5738 89.3492 37.5226 85.1763C40.1771 79.4831 40.3712 69.1723 37.5226 60.7681C37.5226 60.7681 31.8315 53.3153 31.4951 46.1593C31.4951 46.1593 32.1739 41.4805 23.9438 41.612C23.9438 41.612 17.75 42.8566 7.52235 34.1474L1.48288 30.0192C1.48288 30.0192 -1.71402 28.5683 1.63118 20.5001C1.63118 20.5001 7.43377 10.3701 10.5371 7.40614L12.7098 3.25242C12.7098 3.25242 14.6397 -1.36242 22.9435 0.645502C22.9435 0.645502 27.716 1.26824 26.9585 3.87607C26.9585 3.87607 28.131 12.0685 25.2894 11.043C25.2894 11.043 23.9378 10.3646 23.6133 8.70275C23.6133 8.70275 19.4192 8.51648 18.4895 7.39883C18.4895 7.39883 16.3108 13.6673 15.2319 14.774C15.2319 14.774 16.3098 23.7224 15.3862 25.5267C15.3862 25.5267 24.11 21.3876 29.6518 28.6349C29.6518 28.6349 40.3821 25.671 44.6579 30.9752C44.6579 30.9752 51.9574 36.0265 53.112 29.9416L52.9547 26.28C52.9547 26.28 51.9365 24.0749 51.6967 22.4879C51.6967 22.4879 49.8514 23.5225 49.2572 18.9633C49.2572 18.9633 48.1753 15.9976 50.4356 16.4806C50.4356 16.4806 46.6575 7.45636 56.9688 4.97362C56.9688 4.97362 70.3774 2.16034 69.202 15.5903C69.202 15.5903 74.069 14.5448 69.202 22.3427C69.202 22.3427 67.7568 22.0423 68.0285 22.6349C68.2017 22.9819 68.4625 26.7055 68.4625 26.7055C68.4625 26.7055 68.7899 32.5659 74.3238 31.5952C74.3238 31.5952 84.2081 25.2428 88.9895 28.8349C88.9895 28.8349 95.2798 21.5237 103.753 25.3962C103.753 25.3962 106.431 25.7988 107.196 23.6722C107.196 23.6722 101.904 19.7358 103.177 8.98307C103.177 8.98307 102.765 5.19094 100.898 6.07757L99.044 6.40264C99.044 6.40264 98.6389 9.18487 93.1837 8.91824C93.1837 8.91824 93.3768 9.88066 93.117 10.0797C92.263 10.7472 89.3906 10.6084 88.4142 10.0797C86.1778 8.87898 85.9469 2.95749 91.0985 1.59513L96.2771 0.359699Z" fill="white"/>
</svg>
