<svg width="168" height="251" viewBox="0 0 168 251" fill="none" xmlns="http://www.w3.org/2000/svg">
<rect x="3.67505" y="144.869" width="131.25" height="106.131" rx="53.0655" fill="#6AF15E" fill-opacity="0.15"/>
<rect x="36.75" width="131.25" height="106.131" rx="53.0655" fill="#6AF15E" fill-opacity="0.15"/>
<path fill-rule="evenodd" clip-rule="evenodd" d="M29.1218 21.2685C27.3499 22.9284 25.6548 24.6693 24.0425 26.4852H39.2211C39.886 26.4852 40.425 27.0242 40.425 27.6891C40.425 28.354 39.886 28.893 39.2211 28.893H21.9892C10.8711 42.4712 4.2 59.8315 4.2 78.75V163.229C4.2 176.772 7.6185 189.516 13.6397 200.646H5.80517C4.91866 200.646 4.2 201.364 4.2 202.251C4.2 203.137 4.91866 203.856 5.80517 203.856H15.4753C15.8007 204.395 16.1324 204.931 16.4703 205.461H1.20388C0.538993 205.461 0 206 0 206.665C0 207.33 0.538995 207.869 1.20388 207.869H18.0658C32.2686 228.473 56.0321 241.979 82.95 241.979C104.186 241.979 123.459 233.573 137.622 219.908H125.629C124.964 219.908 124.425 219.369 124.425 218.704C124.425 218.039 124.964 217.5 125.629 217.5H140.013C142.526 214.859 144.858 212.043 146.988 209.073H162.071C162.736 209.073 163.275 208.534 163.275 207.869C163.275 207.204 162.736 206.665 162.071 206.665H148.648C148.999 206.135 149.345 205.6 149.683 205.06H166.796C167.461 205.06 168 204.521 168 203.856C168 203.191 167.461 202.652 166.796 202.652H151.137C157.854 191.058 161.7 177.593 161.7 163.229V78.75C161.7 61.6476 156.248 45.8186 146.988 32.9059H160.095C160.981 32.9059 161.7 32.1873 161.7 31.3008C161.7 30.4142 160.981 29.6956 160.095 29.6956H144.559C144.128 29.1547 143.69 28.6196 143.245 28.0904H153.27C154.156 28.0904 154.875 27.3718 154.875 26.4852C154.875 25.5987 154.156 24.8801 153.27 24.8801H140.392C126.025 9.56644 105.605 0 82.95 0C67.5654 0 53.2112 4.4116 41.0835 12.0388H20.5821C19.3632 12.0388 18.375 13.0269 18.375 14.2459C18.375 15.4648 19.3632 16.453 20.5821 16.453H34.7708C33.7649 17.232 32.7785 18.0349 31.8122 18.8607H12.2289C11.564 18.8607 11.025 19.3997 11.025 20.0646C11.025 20.7295 11.564 21.2685 12.2289 21.2685H29.1218Z" fill="url(#paint0_linear)"/>
<defs>
<linearGradient id="paint0_linear" x1="27.5626" y1="222.316" x2="109.489" y2="0.979858" gradientUnits="userSpaceOnUse">
<stop stop-color="#6AF15E" stop-opacity="0.9"/>
<stop offset="1" stop-color="#38F9D7"/>
</linearGradient>
</defs>
</svg>
