<svg width="748" height="865" viewBox="0 0 748 865" fill="none" xmlns="http://www.w3.org/2000/svg">
<path fill-rule="evenodd" clip-rule="evenodd" d="M626.646 773C641.271 759.668 654.96 744.909 667.514 728.748L1143.61 115.893L590.818 -313.547L334.809 15.9999H250.5C246.358 15.9999 243 19.3578 243 23.4999C243 27.6421 246.358 30.9999 250.5 30.9999H323.156L317.718 37.9999H275C273.343 37.9999 272 39.3431 272 40.9999C272 42.6568 273.343 43.9999 275 43.9999H313.057L114.72 299.309C44.091 390.226 25.3233 504.991 53.9453 608H39.5C35.3579 608 32 611.358 32 615.5C32 619.642 35.3579 623 39.5 623H58.4761C59.2405 625.341 60.0299 627.674 60.8441 630H3C1.34315 630 0 631.343 0 633C0 634.657 1.34314 636 3 636H63.0062C84.8977 695.062 122.997 748.942 176.397 790.426C306.561 891.544 485.607 886.362 609.054 788H686.5C690.642 788 694 784.642 694 780.5C694 776.358 690.642 773 686.5 773H626.646Z" fill="url(#paint0_linear)"/>
<defs>
<linearGradient id="paint0_linear" x1="1006.5" y1="-157.5" x2="107" y2="806.5" gradientUnits="userSpaceOnUse">
<stop stop-color="#32E0B6"/>
<stop offset="1" stop-color="#6AF15E"/>
</linearGradient>
</defs>
</svg>
