<svg width="1413" height="503" viewBox="0 0 1413 503" fill="none" xmlns="http://www.w3.org/2000/svg">
<rect x="913" y="203" width="500" height="300" rx="150" fill="#69ED5E" fill-opacity="0.1"/>
<rect x="-1" width="500" height="300" rx="150" fill="#69ED5E" fill-opacity="0.1"/>
<path fill-rule="evenodd" clip-rule="evenodd" d="M120 250C120 211.908 130.649 176.303 149.133 146H125C122.239 146 120 143.761 120 141C120 138.239 122.239 136 125 136H155.649C157.297 133.629 158.995 131.295 160.741 129H111C105.477 129 101 124.523 101 119C101 113.477 105.477 109 111 109H178.159C183.057 104.072 188.211 99.3985 193.598 95H237.5C239.433 95 241 93.433 241 91.5C241 89.567 239.433 88 237.5 88H202.69C235.643 64.0954 276.176 50 320 50H1120C1140.72 50 1160.71 53.151 1179.5 59H1229C1231.21 59 1233 60.7909 1233 63C1233 65.2091 1231.21 67 1229 67H1200.81C1208.16 70.2481 1215.27 73.9254 1222.12 78H1278C1280.76 78 1283 80.2386 1283 83C1283 85.7614 1280.76 88 1278 88H1237.31C1287.41 124.346 1320 183.367 1320 250C1320 284.383 1311.32 316.74 1296.04 345H1362C1364.21 345 1366 346.791 1366 349C1366 351.209 1364.21 353 1362 353H1291.47C1280.87 370.617 1267.63 386.466 1252.29 400H1292C1294.21 400 1296 401.791 1296 404C1296 406.209 1294.21 408 1292 408H1242.64C1240.43 409.712 1238.19 411.379 1235.92 413H1316C1318.21 413 1320 414.791 1320 417C1320 419.209 1318.21 421 1316 421H1223.78C1193.53 439.402 1158 450 1120 450H320C284.844 450 251.806 440.929 223.1 425H241.5C245.642 425 249 421.642 249 417.5C249 413.358 245.642 410 241.5 410H199.981C194.17 405.634 188.605 400.96 183.31 396H111C108.791 396 107 394.209 107 392C107 389.791 108.791 388 111 388H175.238C173.366 386.038 171.535 384.037 169.743 382H133C130.791 382 129 380.209 129 378C129 375.791 130.791 374 133 374H163.069C136.101 339.916 120 296.838 120 250Z" fill="url(#paint0_linear)"/>
<defs>
<linearGradient id="paint0_linear" x1="120" y1="250" x2="1320" y2="250" gradientUnits="userSpaceOnUse">
<stop stop-color="#6AF15E"/>
<stop offset="1" stop-color="#38F9D7"/>
</linearGradient>
</defs>
</svg>
