<svg width="1414" height="503" viewBox="0 0 1414 503" fill="none" xmlns="http://www.w3.org/2000/svg">
<rect x="914" y="203" width="500" height="300" rx="150" fill="#69ED5E" fill-opacity="0.1"/>
<rect width="500" height="300" rx="150" fill="#69ED5E" fill-opacity="0.1"/>
<path fill-rule="evenodd" clip-rule="evenodd" d="M121 250C121 211.908 131.649 176.303 150.133 146H126C123.239 146 121 143.761 121 141C121 138.239 123.239 136 126 136H156.649C158.297 133.629 159.995 131.295 161.741 129H112C106.477 129 102 124.523 102 119C102 113.477 106.477 109 112 109H179.159C184.057 104.072 189.211 99.3985 194.598 95H238.5C240.433 95 242 93.433 242 91.5C242 89.567 240.433 88 238.5 88H203.69C236.643 64.0954 277.176 50 321 50H1121C1141.72 50 1161.71 53.151 1180.5 59H1230C1232.21 59 1234 60.7909 1234 63C1234 65.2091 1232.21 67 1230 67H1201.81C1209.16 70.2481 1216.27 73.9254 1223.12 78H1279C1281.76 78 1284 80.2386 1284 83C1284 85.7614 1281.76 88 1279 88H1238.31C1288.41 124.346 1321 183.367 1321 250C1321 284.383 1312.32 316.74 1297.04 345H1363C1365.21 345 1367 346.791 1367 349C1367 351.209 1365.21 353 1363 353H1292.47C1281.87 370.617 1268.63 386.466 1253.29 400H1293C1295.21 400 1297 401.791 1297 404C1297 406.209 1295.21 408 1293 408H1243.64C1241.43 409.712 1239.19 411.379 1236.92 413H1317C1319.21 413 1321 414.791 1321 417C1321 419.209 1319.21 421 1317 421H1224.78C1194.53 439.402 1159 450 1121 450H321C285.844 450 252.806 440.929 224.1 425H242.5C246.642 425 250 421.642 250 417.5C250 413.358 246.642 410 242.5 410H200.981C195.17 405.634 189.605 400.96 184.31 396H112C109.791 396 108 394.209 108 392C108 389.791 109.791 388 112 388H176.238C174.366 386.038 172.535 384.037 170.743 382H134C131.791 382 130 380.209 130 378C130 375.791 131.791 374 134 374H164.069C137.101 339.916 121 296.838 121 250Z" fill="url(#paint0_linear)"/>
<defs>
<linearGradient id="paint0_linear" x1="121" y1="250" x2="1321" y2="250" gradientUnits="userSpaceOnUse">
<stop stop-color="#6AF15E"/>
<stop offset="1" stop-color="#38F9D7"/>
</linearGradient>
</defs>
</svg>
