<svg width="30" height="30" viewBox="0 0 30 30" fill="none" xmlns="http://www.w3.org/2000/svg">
<path d="M15.0051 7.297C10.7514 7.297 7.30762 10.7445 7.30762 14.9945C7.30762 19.2482 10.7551 22.692 15.0051 22.692C19.2589 22.692 22.7026 19.2445 22.7026 14.9945C22.7026 10.7407 19.2551 7.297 15.0051 7.297ZM15.0051 19.9907C12.2439 19.9907 10.0089 17.7545 10.0089 14.9945C10.0089 12.2345 12.2451 9.99825 15.0051 9.99825C17.7651 9.99825 20.0014 12.2345 20.0014 14.9945C20.0026 17.7545 17.7664 19.9907 15.0051 19.9907Z" fill="white"/>
<path d="M21.1853 0.0942333C18.4253 -0.0345167 11.589 -0.0282667 8.82653 0.0942333C6.39903 0.207983 4.25778 0.794233 2.53153 2.52048C-0.353466 5.40548 0.0152841 9.29298 0.0152841 14.9942C0.0152841 20.8292 -0.309716 24.6267 2.53153 27.468C5.42778 30.363 9.37153 29.9842 15.0053 29.9842C20.7853 29.9842 22.7803 29.988 24.824 29.1967C27.6028 28.118 29.7003 25.6342 29.9053 21.173C30.0353 18.4117 30.0278 11.5767 29.9053 8.81423C29.6578 3.54798 26.8315 0.354233 21.1853 0.0942333ZM25.554 25.5592C23.6628 27.4505 21.039 27.2817 14.969 27.2817C8.71903 27.2817 6.21278 27.3742 4.38403 25.5405C2.27778 23.4442 2.65903 20.078 2.65903 14.9742C2.65903 8.06798 1.95028 3.09423 8.88153 2.73923C10.474 2.68298 10.9428 2.66423 14.9515 2.66423L15.0078 2.70173C21.669 2.70173 26.8953 2.00423 27.209 8.93423C27.2803 10.5155 27.2965 10.9905 27.2965 14.993C27.2953 21.1705 27.4128 23.6917 25.554 25.5592Z" fill="white"/>
<path d="M23.0077 8.79184C24.0012 8.79184 24.8065 7.98651 24.8065 6.99309C24.8065 5.99966 24.0012 5.19434 23.0077 5.19434C22.0143 5.19434 21.209 5.99966 21.209 6.99309C21.209 7.98651 22.0143 8.79184 23.0077 8.79184Z" fill="white"/>
</svg>
