<svg width="30" height="30" viewBox="0 0 30 30" fill="none" xmlns="http://www.w3.org/2000/svg">
<g clip-path="url(#clip0)">
<path d="M15.005 7.29761C10.7512 7.29761 7.3075 10.7451 7.3075 14.9951C7.3075 19.2489 10.755 22.6926 15.005 22.6926C19.2587 22.6926 22.7025 19.2451 22.7025 14.9951C22.7025 10.7414 19.255 7.29761 15.005 7.29761ZM15.005 19.9914C12.2437 19.9914 10.0087 17.7551 10.0087 14.9951C10.0087 12.2351 12.245 9.99886 15.005 9.99886C17.765 9.99886 20.0012 12.2351 20.0012 14.9951C20.0025 17.7551 17.7662 19.9914 15.005 19.9914Z" fill="black"/>
<path d="M21.185 0.0948437C18.425 -0.0339063 11.5888 -0.0276563 8.82629 0.0948437C6.39879 0.208594 4.25754 0.794843 2.53129 2.52109C-0.35371 5.40609 0.0150399 9.2936 0.0150399 14.9948C0.0150399 20.8298 -0.30996 24.6273 2.53129 27.4686C5.42754 30.3636 9.37129 29.9848 15.005 29.9848C20.785 29.9848 22.78 29.9886 24.8238 29.1973C27.6025 28.1186 29.7 25.6348 29.905 21.1736C30.035 18.4123 30.0275 11.5773 29.905 8.81485C29.6575 3.54859 26.8313 0.354844 21.185 0.0948437ZM25.5538 25.5598C23.6625 27.4511 21.0388 27.2823 14.9688 27.2823C8.71879 27.2823 6.21254 27.3748 4.38379 25.5411C2.27754 23.4448 2.65879 20.0786 2.65879 14.9748C2.65879 8.06859 1.95004 3.09484 8.88129 2.73984C10.4738 2.68359 10.9425 2.66484 14.9513 2.66484L15.0075 2.70234C21.6688 2.70234 26.895 2.00484 27.2088 8.93484C27.28 10.5161 27.2963 10.9911 27.2963 14.9936C27.295 21.1711 27.4125 23.6923 25.5538 25.5598Z" fill="black"/>
<path d="M23.0075 8.79245C24.0009 8.79245 24.8062 7.98712 24.8062 6.9937C24.8062 6.00027 24.0009 5.19495 23.0075 5.19495C22.0141 5.19495 21.2087 6.00027 21.2087 6.9937C21.2087 7.98712 22.0141 8.79245 23.0075 8.79245Z" fill="black"/>
</g>
<defs>
<clipPath id="clip0">
<rect width="30" height="30" fill="white"/>
</clipPath>
</defs>
</svg>
