<svg width="35" height="35" viewBox="0 0 35 35" xmlns="http://www.w3.org/2000/svg">
<path d="M21.8505 9.55699C21.8503 8.69659 21.5951 7.85553 21.117 7.14019C20.6389 6.42484 19.9595 5.86733 19.1646 5.53814C18.3696 5.20896 17.495 5.12289 16.6511 5.29082C15.8073 5.45875 15.0322 5.87313 14.4239 6.48157C13.8155 7.09002 13.4013 7.86519 13.2335 8.70907C13.0656 9.55296 13.1518 10.4277 13.4811 11.2226C13.8104 12.0175 14.368 12.6969 15.0834 13.1749C15.7987 13.6529 16.6398 13.908 17.5002 13.908C18.6536 13.9066 19.7594 13.4477 20.575 12.632C21.3905 11.8164 21.8492 10.7105 21.8505 9.55699V9.55699ZM14.1803 9.55699C14.1804 8.90038 14.3752 8.25855 14.7401 7.71266C15.1049 7.16676 15.6235 6.74132 16.2301 6.49013C16.8368 6.23893 17.5043 6.17327 18.1482 6.30144C18.7922 6.42961 19.3837 6.74586 19.8479 7.21019C20.3121 7.67453 20.6283 8.2661 20.7563 8.9101C20.8844 9.5541 20.8186 10.2216 20.5673 10.8282C20.316 11.4348 19.8905 11.9533 19.3446 12.3181C18.7986 12.6829 18.1568 12.8776 17.5002 12.8776C16.6199 12.8766 15.776 12.5264 15.1536 11.9039C14.5312 11.2813 14.1811 10.4373 14.1803 9.55699V9.55699Z" fill="white"/>
<path d="M34.9659 34.3011L30.766 23.2903C30.7288 23.1928 30.6628 23.1089 30.5769 23.0497C30.4909 22.9905 30.389 22.9588 30.2847 22.9588H22.336C22.3846 22.8796 22.4329 22.8028 22.4815 22.7233C25.5399 17.6595 27.079 13.2299 27.0569 9.55921C27.0574 7.02438 26.0509 4.5932 24.2588 2.8005C22.4668 1.0078 20.0361 0.000429584 17.5013 1.37363e-07C14.9666 -0.00042931 12.5355 1.00612 10.7429 2.79821C8.95023 4.5903 7.9429 7.02114 7.94247 9.55597C7.92039 13.2299 9.45948 17.6601 12.518 22.7233C12.5665 22.8036 12.6148 22.8805 12.6634 22.9588H4.71472C4.61036 22.9588 4.50848 22.9905 4.42253 23.0497C4.33659 23.1089 4.27063 23.1928 4.23338 23.2903L0.0341318 34.3011C0.00421078 34.3791 -0.00626679 34.4632 0.00360442 34.5462C0.0134756 34.6291 0.0433987 34.7085 0.0907883 34.7773C0.138178 34.8461 0.201609 34.9023 0.2756 34.9411C0.349592 34.9799 0.431919 35.0001 0.515468 35H34.4845C34.5681 35.0001 34.6504 34.9799 34.7244 34.9411C34.7984 34.9023 34.8618 34.8461 34.9092 34.7773C34.9566 34.7085 34.9865 34.6291 34.9964 34.5462C35.0063 34.4632 34.9958 34.3791 34.9659 34.3011V34.3011ZM8.97314 9.55685C8.97334 8.43705 9.19408 7.32825 9.62277 6.29376C10.0515 5.25927 10.6797 4.31935 11.4716 3.52767C12.2636 2.73598 13.2037 2.10804 14.2383 1.67969C15.2729 1.25133 16.3817 1.03096 17.5015 1.03116C18.6212 1.03135 19.73 1.2521 20.7644 1.68081C21.7989 2.10952 22.7388 2.73779 23.5304 3.52975C24.3221 4.32171 24.95 5.26184 25.3784 6.29648C25.8067 7.33112 26.0271 8.43999 26.0269 9.5598C26.071 16.8781 19.2293 25.9043 17.5 28.0688C15.7707 25.9052 8.92869 16.8814 8.97314 9.55685V9.55685ZM17.1076 29.217C17.1559 29.2738 17.2161 29.3195 17.2838 29.3508C17.3516 29.3822 17.4254 29.3984 17.5 29.3984C17.5746 29.3984 17.6484 29.3822 17.7162 29.3508C17.7839 29.3195 17.8441 29.2738 17.8924 29.217C19.2603 27.5506 20.5284 25.8048 21.6901 23.9886H29.9294L30.5888 25.7183L14.488 31.4448L8.74911 23.9877H13.3093C14.4712 25.8042 15.7395 27.5503 17.1076 29.217V29.217ZM14.4701 32.5438H14.473L24.0783 29.1287L27.8038 33.9696H10.464L14.4701 32.5438ZM5.07005 23.9877H7.44877L13.4668 31.8078L7.38959 33.9693H1.26323L5.07005 23.9877ZM29.1053 33.9696L25.0989 28.7639L30.9574 26.6804L33.7374 33.9696H29.1053Z"/>
</svg>
