<svg width="873" height="414" viewBox="0 0 873 414" fill="none" xmlns="http://www.w3.org/2000/svg">
<rect x="193" y="117" width="646" height="297" rx="148.5" fill="#6AF15E" fill-opacity="0.1"/>
<rect x="-69" width="646" height="297" rx="148.5" fill="#6AF15E" fill-opacity="0.1"/>
<path fill-rule="evenodd" clip-rule="evenodd" d="M680.723 60H0V344H680.722C720.142 344 755.811 327.937 781.539 302H822.987C824.644 302 825.987 300.657 825.987 299C825.987 297.343 824.644 296 822.987 296H787.158C796.125 285.854 803.665 274.415 809.461 262H822.987C824.644 262 825.987 260.657 825.987 259C825.987 257.343 824.644 256 822.987 256H812.094C812.774 254.349 813.423 252.682 814.042 251H835.352C838.114 251 840.352 248.761 840.352 246C840.352 243.239 838.114 241 835.352 241H817.3C820.832 228.608 822.722 215.525 822.722 202C822.722 174.887 815.124 149.55 801.94 128H785.392C784.012 128 782.892 126.881 782.892 125.5C782.892 124.119 784.012 123 785.392 123H798.736C796.187 119.199 793.459 115.529 790.564 112H829.823C832.032 112 833.823 110.209 833.823 108C833.823 105.791 832.032 104 829.823 104H783.485C757.624 76.891 721.146 60 680.723 60ZM822.805 131C820.596 131 818.805 132.791 818.805 135C818.805 137.209 820.596 139 822.805 139H853.329C855.538 139 857.329 137.209 857.329 135C857.329 132.791 855.538 131 853.329 131H822.805ZM832.405 211C831.024 211 829.905 212.119 829.905 213.5C829.905 214.881 831.024 216 832.405 216H870.5C871.881 216 873 214.881 873 213.5C873 212.119 871.881 211 870.5 211H832.405ZM818.805 286.5C818.805 285.119 819.924 284 821.305 284H852.87C854.251 284 855.37 285.119 855.37 286.5C855.37 287.881 854.251 289 852.87 289H821.305C819.924 289 818.805 287.881 818.805 286.5Z" fill="url(#paint0_linear)"/>
<defs>
<linearGradient id="paint0_linear" x1="49.2872" y1="194.742" x2="825.564" y2="201.659" gradientUnits="userSpaceOnUse">
<stop stop-color="#69ED5E"/>
<stop offset="1" stop-color="#6CEAC4"/>
</linearGradient>
</defs>
</svg>
