<svg width="304" height="474" viewBox="0 0 304 474" fill="none" xmlns="http://www.w3.org/2000/svg">
<path fill-rule="evenodd" clip-rule="evenodd" d="M62.1294 32C55.7259 37.156 49.7698 42.8451 44.3285 49H63C63.5523 49 64 49.4478 64 50C64 50.5522 63.5523 51 63 51H42.5925C21.0206 76.3127 8 109.136 8 145V329C8 351.973 13.3423 373.698 22.8523 393H4C1.79086 393 0 394.791 0 397C0 399.209 1.79086 401 4 401H27.1105C27.6881 402.008 28.2774 403.008 28.8782 404H22C20.8954 404 20 404.896 20 406C20 407.104 20.8954 408 22 408H31.3903C57.2531 447.731 102.059 474 153 474C186.827 474 217.949 462.417 242.615 443H210C208.895 443 208 442.104 208 441C208 439.896 208.895 439 210 439H247.476C254.5 432.962 260.938 426.263 266.696 419H285.5C286.328 419 287 418.328 287 417.5C287 416.672 286.328 416 285.5 416H269.011C269.347 415.552 269.681 415.103 270.012 414.651C270.413 414.104 270.811 413.553 271.205 413H301.5C302.881 413 304 411.881 304 410.5C304 409.119 302.881 408 301.5 408H274.61C289.404 385.272 298 358.14 298 329V145C298 93.1337 270.768 47.6277 229.822 22H234C234.552 22 235 21.5522 235 21C235 20.4478 234.552 20 234 20H226.53C222.867 17.8405 219.101 15.8374 215.24 14H247.5C248.881 14 250 12.8807 250 11.5C250 10.1193 248.881 9 247.5 9H203.403C187.704 3.17981 170.723 0 153 0C126.875 0 102.363 6.90918 81.1932 19H44C42.8954 19 42 19.8954 42 21C42 22.1046 42.8954 23 44 23H74.6029C72.6055 24.2861 70.6418 25.62 68.7133 27H53.5C52.1193 27 51 28.1193 51 29.5C51 30.8807 52.1193 32 53.5 32H62.1294Z" fill="url(#paint0_linear)"/>
<defs>
<linearGradient id="paint0_linear" x1="50.5" y1="16" x2="303.117" y2="458.953" gradientUnits="userSpaceOnUse">
<stop stop-color="#69ED5E"/>
<stop offset="1" stop-color="#6CEAC4"/>
</linearGradient>
</defs>
</svg>
