<svg width="232" height="325" viewBox="0 0 232 325" fill="none" xmlns="http://www.w3.org/2000/svg">
<path fill-rule="evenodd" clip-rule="evenodd" d="M54.1809 184.984C49.6292 182.052 45.4117 178.876 41.5331 175.491L29.8278 175.825C28.8419 175.853 28.0201 175.077 27.9922 174.091C27.9643 173.105 28.7409 172.283 29.7267 172.255L37.7557 172.026C33.2374 167.669 29.2407 163.009 25.7745 158.111H32.0217C32.7265 158.111 33.2979 157.539 33.2979 156.834C33.2979 156.13 32.7265 155.558 32.0217 155.558H24.0302C17.7965 146.106 13.4813 135.838 11.1469 125.199L2.67074 125.44C1.23692 125.481 0.0416601 124.352 0.00106113 122.918C-0.0395378 121.484 1.08989 120.289 2.52371 120.248L10.1732 120.03C10.0277 119.107 9.89695 118.183 9.78088 117.257L6.7442 117.343C6.19099 117.359 5.72982 116.923 5.71415 116.37C5.69849 115.817 6.13426 115.356 6.68747 115.34L9.55359 115.258C8.52917 105.234 9.21917 95.0095 11.6729 84.9381H32.0217C32.7265 84.9381 33.2979 84.3667 33.2979 83.6618C33.2979 82.9569 32.7265 82.3855 32.0217 82.3855H12.3335C15.2246 71.8369 20.0661 61.4903 26.9151 51.7551H42.8435C43.5484 51.7551 44.1198 51.1837 44.1198 50.4789C44.1198 49.774 43.5484 49.2026 42.8435 49.2026H28.7676C30.4937 46.896 32.3355 44.6266 34.2935 42.4C34.7876 41.8382 35.2868 41.2818 35.791 40.7307L23.2349 41.0888C22.6614 41.1052 22.1833 40.6535 22.167 40.08C22.1508 39.5064 22.6026 39.0282 23.1761 39.0119L37.7955 38.5949C38.6094 37.7497 39.4352 36.9177 40.2727 36.0992L34.0893 36.2755C32.6554 36.3164 31.4602 35.1872 31.4196 33.7534C31.379 32.3196 32.5084 31.1241 33.9422 31.0832L46.148 30.7351C87.9058 -4.88108 153.353 -10.6724 199.884 19.3037L417 159.173L271.297 324.854L79.9696 201.598L62.9639 202.083C62.2626 202.103 61.678 201.551 61.6582 200.849C61.6383 200.148 62.1907 199.563 62.892 199.543L76.1915 199.164L73.9992 197.752L52.1157 198.376C51.0652 198.406 50.1895 197.578 50.1598 196.528C50.13 195.477 50.9575 194.602 52.008 194.572L68.3399 194.106L54.1809 184.984Z" fill="url(#paint0_linear)"/>
<defs>
<linearGradient id="paint0_linear" x1="34.2935" y1="42.4213" x2="307.989" y2="283.134" gradientUnits="userSpaceOnUse">
<stop stop-color="#38F9D7"/>
<stop offset="1" stop-color="#6AF15E"/>
</linearGradient>
</defs>
</svg>
