<svg width="435" height="328" viewBox="0 0 435 328" fill="none" xmlns="http://www.w3.org/2000/svg">
<path d="M113 184.5C113 105.247 177.247 41 256.5 41H435V328H256.5C177.247 328 113 263.753 113 184.5V184.5Z" fill="#6AF15E" fill-opacity="0.1"/>
<path fill-rule="evenodd" clip-rule="evenodd" d="M47.4327 112C48.1596 108.62 49.0067 105.286 49.9694 102H36.6032C34.6702 102 33.1032 100.433 33.1032 98.5C33.1032 96.567 34.6703 95 36.6032 95H52.2205C55.2911 86.2428 59.1956 77.8777 63.8388 70H47.2341C45.8534 70 44.7341 68.8807 44.7341 67.5C44.7341 66.1193 45.8534 65 47.2341 65H66.927C92.2174 25.8868 136.215 0 186.258 0H434.666V284H186.258C160.391 284 136.14 277.084 115.253 265H129.151C130.808 265 132.151 263.657 132.151 262C132.151 260.343 130.808 259 129.151 259H105.767C85.6281 245.119 69.2498 226.172 58.4721 204H44.5501C43.1694 204 42.0501 202.881 42.0501 201.5C42.0501 200.119 43.1694 199 44.5501 199H56.161C52.6611 191.023 49.8733 182.663 47.8781 174H44.2298C42.0206 174 40.2298 172.209 40.2298 170C40.2298 167.791 42.0206 166 44.2298 166H46.2775C44.9494 158.198 44.2578 150.18 44.2578 142C44.2578 133.47 45.0099 125.116 46.4514 117H31.1298C29.7491 117 28.6298 115.881 28.6298 114.5C28.6298 113.119 29.7491 112 31.1298 112H47.4327ZM52.004 35C52.004 32.7909 53.7949 31 56.004 31H75.2706C77.4798 31 79.2706 32.7909 79.2706 35C79.2706 37.2091 77.4798 39 75.2706 39H56.004C53.7948 39 52.004 37.2091 52.004 35ZM51.1873 230C47.8736 230 45.1873 232.686 45.1873 236C45.1873 239.314 47.8736 242 51.1873 242H66.454C69.7677 242 72.454 239.314 72.454 236C72.454 232.686 69.7677 230 66.454 230H51.1873ZM27.9458 246C26.8412 246 25.9458 246.895 25.9458 248C25.9458 249.105 26.8412 250 27.9458 250H53.023C54.1275 250 55.023 249.105 55.023 248C55.023 246.895 54.1275 246 53.023 246H27.9458ZM11.6309 155.5C11.6309 153.567 13.1979 152 15.1309 152H20.6564C22.5894 152 24.1564 153.567 24.1564 155.5C24.1564 157.433 22.5894 159 20.6564 159H15.1309C13.1979 159 11.6309 157.433 11.6309 155.5ZM2 179C0.895431 179 0 179.895 0 181C0 182.105 0.895429 183 2 183H22.1564C23.261 183 24.1564 182.105 24.1564 181C24.1564 179.895 23.261 179 22.1564 179H2ZM3.57873 78.5C3.57873 77.1193 4.69802 76 6.07873 76H35.0767C36.4574 76 37.5767 77.1193 37.5767 78.5C37.5767 79.8807 36.4574 81 35.0767 81H6.07873C4.69802 81 3.57873 79.8807 3.57873 78.5Z" fill="url(#paint0_linear)"/>
<defs>
<linearGradient id="paint0_linear" x1="54.1492" y1="134.742" x2="412.776" y2="136.218" gradientUnits="userSpaceOnUse">
<stop stop-color="#57FF7C"/>
<stop offset="0.471808" stop-color="#6CEAC4"/>
</linearGradient>
</defs>
</svg>
