<svg width="9" height="9" viewBox="0 0 9 9" fill="none" xmlns="http://www.w3.org/2000/svg">
<path d="M8.85046 4.55699C8.85035 3.69659 8.59511 2.85553 8.11702 2.14019C7.63894 1.42484 6.95948 0.867326 6.16456 0.538143C5.36964 0.20896 4.49496 0.122891 3.65113 0.290819C2.80729 0.458748 2.0322 0.873133 1.42386 1.48157C0.815525 2.09002 0.40126 2.86519 0.233451 3.70907C0.065642 4.55296 0.151826 5.42765 0.481106 6.22256C0.810385 7.01746 1.36797 7.69687 2.08336 8.17487C2.79875 8.65288 3.6398 8.90801 4.50018 8.90801C5.65362 8.90661 6.75941 8.44773 7.57495 7.63204C8.3905 6.81636 8.84922 5.71047 8.85046 4.55699ZM1.18029 4.55699C1.1804 3.90038 1.37521 3.25855 1.74008 2.71266C2.10494 2.16676 2.62348 1.74132 3.23012 1.49013C3.83676 1.23893 4.50427 1.17327 5.14822 1.30144C5.79218 1.42961 6.38368 1.74586 6.84791 2.21019C7.31215 2.67453 7.62828 3.2661 7.75633 3.9101C7.88438 4.5541 7.8186 5.22161 7.56731 5.82823C7.31602 6.43485 6.8905 6.95333 6.34456 7.31811C5.79862 7.68289 5.15677 7.87759 4.50018 7.87759C3.6199 7.87658 2.77597 7.52639 2.15357 6.90386C1.53118 6.28133 1.18114 5.43731 1.18029 4.55699Z" fill="#217D00"/>
</svg>
