<svg width="35" height="35" viewBox="0 0 35 35" fill="none" xmlns="http://www.w3.org/2000/svg">
<g clip-path="url(#clip0)">
<path d="M34.6879 25.327C34.5938 25.1695 34.0119 23.905 31.2117 21.3061C28.2803 18.5847 28.674 19.0266 32.2049 14.3209C34.3554 11.4551 35.2151 9.70493 34.9461 8.95675C34.6901 8.24357 33.1084 8.43171 33.1084 8.43171L27.8493 8.46234C27.8493 8.46234 27.4599 8.40983 27.1689 8.58266C26.8867 8.75329 26.7051 9.14707 26.7051 9.14707C26.7051 9.14707 25.8716 11.3654 24.7603 13.2511C22.4173 17.2305 21.4788 17.4405 21.096 17.1933C20.2056 16.6179 20.4287 14.8787 20.4287 13.6449C20.4287 9.78806 21.0128 8.18013 19.289 7.76447C18.7158 7.62665 18.2958 7.53477 16.8322 7.51945C14.9552 7.49976 13.3648 7.52602 12.4657 7.96574C11.8662 8.25888 11.4046 8.91299 11.6868 8.95019C12.0347 8.99613 12.8222 9.16239 13.2401 9.73118C13.7804 10.464 13.7608 12.1135 13.7608 12.1135C13.7608 12.1135 14.0714 16.6529 13.0366 17.2174C12.3256 17.6046 11.3521 16.8148 9.26292 13.203C8.19315 11.3544 7.38372 9.30896 7.38372 9.30896C7.38372 9.30896 7.2284 8.92831 6.95056 8.72486C6.61366 8.47765 6.14113 8.39889 6.14113 8.39889L1.14014 8.42952C1.14014 8.42952 0.38977 8.4514 0.114125 8.77736C-0.130893 9.06832 0.0944357 9.66774 0.0944357 9.66774C0.0944357 9.66774 4.01035 18.8275 8.44255 23.4456C12.5094 27.6788 17.1254 27.4009 17.1254 27.4009H19.2168C19.2168 27.4009 19.849 27.3309 20.1706 26.9831C20.4681 26.6637 20.4572 26.0643 20.4572 26.0643C20.4572 26.0643 20.4156 23.2575 21.7195 22.844C23.0036 22.4371 24.6531 25.5567 26.4011 26.7578C27.7224 27.6656 28.7265 27.4666 28.7265 27.4666L33.4016 27.4009C33.4016 27.4009 35.8474 27.25 34.6879 25.327Z" fill="black"/>
</g>
<defs>
<clipPath id="clip0">
<rect width="35" height="35" fill="white"/>
</clipPath>
</defs>
</svg>
