<svg width="40" height="25" viewBox="0 0 40 25" fill="none" xmlns="http://www.w3.org/2000/svg">
<path fill-rule="evenodd" clip-rule="evenodd" d="M39.0587 1.73487C39.3553 0.756225 39.0587 0.0444833 37.7455 0.0444833H33.3821C32.2806 0.0444833 31.7723 0.66726 31.4757 1.33452C31.4757 1.33452 29.2305 7.02847 26.0956 10.7206C25.0789 11.7883 24.6129 12.1441 24.0622 12.1441C23.7657 12.1441 23.3844 11.7883 23.3844 10.8096V1.69039C23.3844 0.533806 23.0455 0 22.1135 0H15.2507C14.5729 0 14.1493 0.533805 14.1493 1.06761C14.1493 2.17971 15.7167 2.44662 15.8861 5.5605V12.3221C15.8861 13.79 15.632 14.0569 15.0812 14.0569C13.5985 14.0569 9.99768 8.31851 7.83716 1.77936C7.41353 0.489324 6.9899 0 5.88846 0H1.48271C0.211815 0 0 0.622773 0 1.29003C0 2.4911 1.48271 8.54092 6.90518 16.548C10.506 22.0196 15.632 24.9555 20.2495 24.9555C23.0455 24.9555 23.3844 24.2883 23.3844 23.1762V19.0391C23.3844 17.7046 23.6386 17.4822 24.5282 17.4822C25.1637 17.4822 26.3074 17.8381 28.8916 20.4626C31.857 23.5765 32.3654 25 34.0175 25H38.3809C39.6518 25 40.2449 24.3327 39.906 23.0427C39.5247 21.7527 38.0844 19.8843 36.2204 17.6601C35.2037 16.4146 33.6786 15.0356 33.2126 14.3683C32.5772 13.4787 32.7466 13.1228 33.2126 12.3221C33.1703 12.3221 38.508 4.40391 39.0587 1.73487Z" fill="black"/>
</svg>
