<svg width="150" height="150" viewBox="0 0 150 150" fill="none" xmlns="http://www.w3.org/2000/svg">
<g clip-path="url(#clip0)">
<path d="M62.2927 49.8932C61.7344 47.549 60.196 45.9073 58.8566 46.2263C57.5172 46.5454 56.884 48.7043 57.4423 51.0485C58.0006 53.3926 59.5391 55.0344 60.8785 54.7153C62.2179 54.3963 62.8511 52.2374 62.2927 49.8932Z" fill="#FFD15C"/>
<path d="M87.2637 50.0526C86.7053 52.3968 87.3385 54.5557 88.6779 54.8747C90.0174 55.1938 91.5558 53.5521 92.1141 51.2079C92.6724 48.8637 92.0393 46.7048 90.6998 46.3857C89.3604 46.0667 87.822 47.7084 87.2637 50.0526Z" fill="#FFD15C"/>
<path d="M107.566 70.0945L91.0494 68.8479L74.844 65.1082L58.6385 68.8479L42.1216 70.0945L40.2517 81.3136C40.2517 81.3136 39.6285 90.0397 44.3032 95.3375C44.3032 95.3375 49.2895 109.05 52.7175 111.231C52.7175 111.231 54.5874 115.906 53.9642 122.45H74.8443H95.4126C94.7894 115.906 96.6593 111.231 96.6593 111.231C100.087 109.05 105.074 95.3375 105.074 95.3375C109.748 90.0397 109.125 81.3136 109.125 81.3136L107.566 70.0945Z" fill="#FF7058"/>
<path d="M62.0665 67.2898C58.015 67.913 56.4569 65.1082 56.4569 65.1082C48.9775 57.6288 38.3816 62.9266 38.3816 62.9266C29.0323 53.5774 19.0599 61.9917 19.0599 61.9917C20.3066 61.0568 21.8647 54.8241 21.8647 54.8241C24.0463 47.3447 28.4092 40.8002 28.4092 40.8002C29.6558 37.6837 33.0838 38.6186 33.0838 38.6186C34.6419 40.1767 36.5117 40.4884 36.5117 40.4884C39.9397 42.0466 40.5632 41.1116 40.5632 41.1116C40.8749 43.2932 42.1213 42.6697 42.1213 42.6697C44.9261 41.7348 43.368 39.5532 43.368 39.5532C42.433 38.3066 44.3029 37.9951 44.3029 37.9951C45.861 37.6834 45.5496 36.7484 45.5496 36.7484L43.368 28.3341C40.2514 27.0875 31.8371 29.269 31.8371 29.269C24.9809 29.5808 21.2412 37.0602 21.2412 37.0602C21.2412 37.0602 -1.197 58.5635 0.0496617 66.3546C1.29633 74.1458 12.2037 76.6388 12.2037 76.6388C16.5666 79.7553 21.5529 81.3134 21.5529 81.3134C31.2139 83.495 40.2514 81.0017 40.2514 81.0017C39.3165 86.923 42.433 92.5325 44.3029 95.0256C48.6658 93.4677 62.3782 85.0534 62.0665 67.2898Z" fill="#FFD15C"/>
<path d="M40.2518 66.0432C40.2518 66.0432 40.5635 66.0432 41.1867 66.6664C41.8099 67.2896 42.4334 67.9131 43.0565 69.1594C43.6797 70.4058 43.9915 71.9642 44.3032 73.5223C44.615 75.0804 44.615 76.9503 44.9264 78.5087C45.5496 81.6252 46.7962 84.7414 48.3544 86.6113C48.9775 87.5462 49.9125 88.1694 50.5359 88.7929C51.1591 89.1046 51.4709 89.4161 51.4709 89.4161C51.4709 89.4161 51.1591 89.4161 50.2242 89.1043C49.601 88.7926 48.3544 88.1694 47.4194 87.5462C46.4845 86.6113 45.5496 85.3646 44.6147 84.1182C43.6797 82.5601 43.368 81.0017 43.0565 79.1319C42.7451 77.262 42.7448 75.7039 42.7448 74.1455C42.7448 72.5874 42.4331 71.3407 42.1216 70.0941C41.8099 68.8474 41.4984 67.9125 40.875 67.2893C40.5635 66.355 40.2518 66.0432 40.2518 66.0432Z" fill="#F8B64C"/>
<path d="M19.0602 71.3413C19.0602 71.3413 20.3069 71.653 22.1767 72.2762C24.0466 72.8994 26.5396 73.5229 29.0329 73.8343C29.6561 73.8343 30.2796 73.8343 30.9028 73.8343C31.526 73.8343 32.1495 73.8343 32.7726 73.8343C33.3958 73.8343 34.0193 73.8343 34.3308 73.5226C34.9539 73.5226 35.2657 73.5226 35.8889 73.2109C36.2006 72.8991 36.8238 72.8991 37.1355 72.8991C37.4473 72.8991 37.7587 72.5874 38.0705 72.5874C38.6936 72.2756 39.0054 72.2756 39.0054 72.2756C39.0054 72.2756 38.6936 72.5874 38.3822 72.8988C38.0705 73.2106 37.1355 73.8338 36.2006 74.1455C35.8889 74.4572 35.2657 74.4572 34.6425 74.7687C34.0193 75.0804 33.3958 75.0804 32.7726 75.0804C31.526 75.3922 29.9679 75.3922 28.7212 75.0804C27.4745 75.3922 26.2282 75.0804 24.9815 74.7687C23.7348 74.4569 22.7999 73.8338 21.865 73.2106C19.9951 72.2762 19.0602 71.3413 19.0602 71.3413Z" fill="#F8B64C"/>
<path d="M15.3205 62.6152C15.3205 62.6152 15.3205 62.3035 15.0088 61.6803C14.697 61.0571 14.697 60.4336 14.3856 59.4987C14.3856 58.5638 14.0739 57.3171 14.3856 56.0707C14.3856 54.8241 15.0088 53.5777 15.3205 52.331C15.9437 51.0844 16.5672 49.838 17.1904 48.9031C17.8136 47.9682 18.7485 47.0332 19.372 46.41C20.9301 45.1634 22.1767 44.8519 22.1767 44.8519C22.1767 44.8519 21.865 45.1637 21.5535 45.4751C21.2418 45.7869 20.6186 46.41 19.9954 47.345C18.7488 48.9031 17.5024 50.7729 16.5675 52.9545C16.2557 54.2012 15.6325 55.1361 15.3208 56.3825C15.0091 57.6288 15.0091 58.5641 14.6976 59.499C14.6976 60.4339 14.6976 61.0571 14.6976 61.6806C15.3205 62.3035 15.3205 62.6152 15.3205 62.6152Z" fill="#F8B64C"/>
<path opacity="0.1" d="M62.0668 67.2898C58.0153 67.913 56.4572 65.1082 56.4572 65.1082C48.9778 57.6288 38.3819 62.9266 38.3819 62.9266C29.0326 53.5774 19.0602 61.9917 19.0602 61.9917C20.3069 61.0568 21.865 54.824 21.865 54.824C24.0466 47.3446 28.4095 40.8002 28.4095 40.8002C28.4095 40.4884 28.7212 40.177 29.0326 39.8652C28.0977 40.177 27.4745 40.8002 26.8511 42.0468C26.8511 42.0468 22.4882 48.5913 20.3066 56.0707C20.3066 56.0707 18.7485 61.992 17.8135 63.2384C17.8135 63.2384 27.786 54.5123 37.1352 64.1733C37.1352 64.1733 47.7311 58.8755 55.2105 66.3549C55.2105 66.3549 56.7687 69.1597 60.8201 68.5365C61.1318 81.0022 54.2756 88.7931 48.6661 93.1563C53.9642 89.1048 62.3785 81.002 62.0668 67.2898Z" fill="#231F20"/>
<path d="M87.6215 67.2898C91.6729 67.913 93.2311 65.1082 93.2311 65.1082C100.71 57.6288 111.306 62.9266 111.306 62.9266C120.656 53.5774 130.628 61.9917 130.628 61.9917C129.381 60.7451 128.135 54.8241 128.135 54.8241C125.953 47.3447 121.591 40.8002 121.591 40.8002C120.344 37.6837 116.916 38.6186 116.916 38.6186C115.358 40.1767 113.488 40.4884 113.488 40.4884C110.06 42.0466 109.437 41.1116 109.437 41.1116C109.125 43.2932 107.878 42.6697 107.878 42.6697C105.074 41.7348 106.632 39.5532 106.632 39.5532C107.567 38.3066 105.697 37.9951 105.697 37.9951C104.139 37.6834 104.45 36.7484 104.45 36.7484L106.632 28.3341C109.748 27.0875 118.163 29.269 118.163 29.269C125.019 29.5808 128.758 37.0602 128.758 37.0602C128.758 37.0602 151.197 58.5635 149.95 66.3546C148.703 74.1458 137.796 76.6388 137.796 76.6388C133.433 79.7553 128.447 81.3134 128.447 81.3134C118.786 83.495 109.748 81.0017 109.748 81.0017C110.683 86.923 107.567 92.5325 105.697 95.0256C101.022 93.4677 87.3098 85.0534 87.6215 67.2898Z" fill="#FFD15C"/>
<path d="M109.436 66.0432C109.436 66.0432 109.124 66.0432 108.501 66.6664C107.878 67.2896 107.255 67.9131 106.631 69.1594C106.008 70.4061 105.697 71.9642 105.385 73.5223C105.073 75.0804 105.073 76.9503 104.762 78.5087C104.138 81.6252 102.892 84.7414 101.334 86.6113C100.71 87.5462 99.7755 88.1694 99.152 88.7929C98.5288 89.1046 98.2171 89.4161 98.2171 89.4161C98.2171 89.4161 98.5288 89.4161 99.4638 89.1043C100.087 88.7926 101.334 88.1694 102.269 87.5462C103.203 86.6113 104.138 85.3646 105.073 84.1182C106.008 82.5601 106.32 81.0017 106.631 79.1319C106.943 77.262 106.943 75.7039 106.943 74.1455C106.943 72.5874 107.255 71.3407 107.566 70.0941C107.878 68.8474 108.19 67.9125 108.813 67.2893C109.125 66.355 109.436 66.0432 109.436 66.0432Z" fill="#F8B64C"/>
<path d="M130.628 71.3413C130.628 71.3413 129.381 71.653 127.512 72.2762C125.642 72.8994 123.149 73.5229 120.655 73.8343C120.032 73.8343 119.409 73.8343 118.785 73.8343C118.162 73.8343 117.539 73.8343 116.916 73.8343C116.292 73.8343 115.669 73.8343 115.357 73.5226C114.734 73.5226 114.423 73.5226 113.799 73.2109C113.488 72.8991 112.864 72.8991 112.553 72.8991C112.241 72.8991 111.93 72.5874 111.618 72.5874C110.995 72.2756 110.683 72.2756 110.683 72.2756C110.683 72.2756 110.995 72.5874 111.306 72.8988C111.618 73.2106 112.553 73.8338 113.488 74.1455C113.799 74.4572 114.423 74.4572 115.046 74.7687C115.669 75.0804 116.292 75.0804 116.916 75.0804C118.162 75.3922 119.72 75.3922 120.967 75.0804C122.214 74.7687 123.772 74.4572 125.018 74.1455C126.265 73.8338 127.2 73.2106 128.135 72.5874C129.693 72.2762 130.628 71.3413 130.628 71.3413Z" fill="#F8B64C"/>
<path d="M134.368 62.6152C134.368 62.6152 134.368 62.3035 134.679 61.6803C134.991 61.0571 134.991 60.4336 135.303 59.4987C135.303 58.5638 135.614 57.3171 135.303 56.0707C135.303 54.8241 134.679 53.5777 134.368 52.331C133.745 51.0844 133.121 49.838 132.498 48.9031C131.875 47.9682 130.94 47.0332 130.316 46.41C128.758 45.1634 127.512 44.8519 127.512 44.8519C127.512 44.8519 127.823 45.1637 128.135 45.4751C128.446 45.7869 129.07 46.41 129.693 47.345C130.939 48.9031 132.186 50.7729 133.121 52.9545C133.433 54.2012 134.056 55.1361 134.367 56.3825C134.679 57.6291 134.679 58.5641 134.991 59.499C134.991 60.4339 134.991 61.0571 134.991 61.6806C134.368 62.3035 134.368 62.6152 134.368 62.6152Z" fill="#F8B64C"/>
<path opacity="0.1" d="M87.6215 67.2898C91.673 67.913 93.2311 65.1082 93.2311 65.1082C100.71 57.6288 111.306 62.9266 111.306 62.9266C120.656 53.5774 130.628 61.9917 130.628 61.9917C129.381 60.745 128.135 54.824 128.135 54.824C125.953 47.3446 121.591 40.8002 121.591 40.8002C121.591 40.4884 121.279 40.177 120.967 39.8652C121.902 40.177 122.526 40.8002 123.149 42.0468C123.149 42.0468 127.512 48.5913 129.693 56.0707C129.693 56.0707 131.252 61.992 132.187 63.2384C132.187 63.2384 122.214 54.5123 112.865 64.1733C112.865 64.1733 102.269 58.8755 94.7895 66.3549C94.7895 66.3549 93.2314 69.1597 89.1799 68.5365C88.8682 81.0022 95.7244 88.7931 101.334 93.1563C95.7241 89.1048 87.3098 81.002 87.6215 67.2898Z" fill="#231F20"/>
<path d="M65.4947 62.9269C63.3131 64.7967 61.755 66.6666 60.5084 68.8482C70.7925 75.0809 78.2719 75.0809 88.5561 68.8482C87.6212 66.6666 85.7513 64.7967 83.5698 62.9269C77.9605 63.8618 71.7278 63.8618 65.4947 62.9269Z" fill="#F8B64C"/>
<path d="M87.6215 68.5364C80.1421 74.146 69.5462 74.146 62.3785 68.5364C62.0668 68.2247 61.7553 67.9132 61.7553 67.6015C61.1321 67.6015 60.8204 67.6015 60.1972 67.6015V68.8482L60.8204 69.4713C64.8718 72.8993 69.8579 74.4577 75.156 74.4577C80.4541 74.4577 85.4402 72.5879 89.4916 69.4713L90.1148 68.8482V67.29C89.4916 67.29 89.1799 67.29 88.5567 67.29C87.9329 67.9129 87.9329 68.2247 87.6215 68.5364Z" fill="#F2F2F2"/>
<path d="M90.1145 46.7215C90.1145 55.1358 83.2583 69.7829 74.844 69.7829C66.4296 69.7829 59.5734 55.1358 59.5734 46.7215C59.5734 38.3071 66.4296 31.4509 74.844 31.4509C83.2583 31.4509 90.1145 37.9954 90.1145 46.7215Z" fill="#FFD15C"/>
<path d="M78.8954 28.3347C65.8064 25.2181 65.1833 32.3861 65.1833 32.3861C65.1833 32.3861 53.6524 35.5026 60.8204 54.5126C60.8204 54.5126 60.8204 49.2148 62.067 47.6564C62.067 47.6564 63.9369 44.2284 63.002 41.4236C63.002 41.1119 63.002 40.4887 63.3137 39.8655C64.5604 37.3725 67.0534 35.8141 69.8582 35.5026C69.8582 35.5026 69.8582 35.5026 70.1699 35.5026C71.728 35.1909 74.2213 35.5026 75.4677 37.9956C76.7144 40.1772 78.8957 41.7354 80.7655 42.6703C84.1935 44.2284 86.9983 47.0332 88.2449 50.7729C88.5567 52.331 88.8681 52.9545 89.1799 54.2008C91.0497 52.9542 93.2313 44.5398 91.3614 40.1769C89.1796 34.2557 84.8167 29.581 78.8954 28.3347Z" fill="#40596B"/>
</g>
<defs>
<clipPath id="clip0">
<rect width="150" height="150" fill="white"/>
</clipPath>
</defs>
</svg>
